
        <svg xmlns="http://www.w3.org/2000/svg" xmlns:xlink="http://www.w3.org/1999/xlink" version="1.1" width="3162.1621621621625" 
        height="970.3286461937278" viewBox="0 0 3162.1621621621625 970.3286461937278">
			
			<g transform="scale(8.108108108108109) translate(10, 10)">
				<defs id="SvgjsDefs1039"><linearGradient id="SvgjsLinearGradient1046"><stop id="SvgjsStop1047" stop-color="#834f2a" offset="0"></stop><stop id="SvgjsStop1048" stop-color="#dba173" offset="0.5"></stop><stop id="SvgjsStop1049" stop-color=" #834F2A" offset="1"></stop></linearGradient></defs><g id="SvgjsG1040" featureKey="T16ghp-0" transform="matrix(1.2048192771084338,0,0,1.2048192771084338,-10.240963855421688,-10.404030673475152)" fill="url(#SvgjsLinearGradient1046)"><path xmlns="http://www.w3.org/2000/svg" d="M32.628212,8.6361885c-1.3350086,2.6396627-2.1030216,5.61516-2.1008072,8.7757549  c0.0030556,8.8963432,5.9801903,16.3825207,14.1322403,18.705534c3.6843719-7.3044529,2.4856567-16.4400749-3.6176529-22.5373764  C38.6159935,11.1556845,35.708065,9.5134058,32.628212,8.6361885z"></path><path xmlns="http://www.w3.org/2000/svg" d="M36.6367226,44.4209976c-2.2498589-8.2716866-9.7946415-14.3607674-18.7788963-14.3561306  C14.4649076,30.0661316,11.2771158,30.9387112,8.5,32.4654617c0.8604574,3.1732445,2.5209713,6.1744614,5.014431,8.6644402  C19.7794399,47.3903809,29.2442551,48.4790459,36.6367226,44.4209976z"></path><path xmlns="http://www.w3.org/2000/svg" d="M55.8574944,63.100174c-4.2872086,7.4469681-3.2679024,17.1136398,3.1020927,23.474884  c2.2940254,2.2922363,5.0209694,3.880127,7.9149857,4.7891769c1.6449127-2.858284,2.5996017-6.1639252,2.5978088-9.6987228  C69.4694366,72.9555359,63.745388,65.5863647,55.8574944,63.100174z"></path><path xmlns="http://www.w3.org/2000/svg" d="M63.6276436,55.5768967c2.5443764,7.7994499,9.8681145,13.438858,18.5163231,13.4329529  c3.2794952-0.0010529,6.3647232-0.8215637,9.0758514-2.254921c-0.9208527-2.8249702-2.486496-5.485714-4.7325592-7.7296715  C80.2964554,52.8389931,70.9795303,51.6921387,63.6276436,55.5768967z"></path><path xmlns="http://www.w3.org/2000/svg" d="M30.5274048,81.6813278c0.0012646,3.5291061,0.9556408,6.8292618,2.5986557,9.6833267  c2.8991814-0.9107361,5.6306572-2.5032654,7.9271049-4.8024521c6.3580856-6.3627243,7.3740196-16.0220184,3.0891266-23.4626579  C36.2468147,65.587204,30.5213947,72.9648132,30.5274048,81.6813278z"></path><path xmlns="http://www.w3.org/2000/svg" d="M36.3721466,55.576683c-7.3567352-3.8893929-16.6797752-2.7372704-22.8689957,3.4578514  c-2.241004,2.242691-3.8027496,4.9006958-4.72192,7.7218742c2.7157688,1.4356766,5.8073206,2.2557602,9.0932493,2.2534409  C26.5151005,69.006897,33.8301964,63.3696022,36.3721466,55.576683z"></path><path xmlns="http://www.w3.org/2000/svg" d="M69.4723816,17.3963432c-0.0010529-3.1555357-0.7696991-6.1255512-2.1030197-8.7609978  c-3.0833282,0.8789034-5.9938965,2.5245552-8.4208412,4.9538212c-6.0945625,6.0989876-7.2872696,15.2284966-3.6074257,22.5278873  C63.4990463,33.7925644,69.4770203,26.2994328,69.4723816,17.3963432z"></path><path xmlns="http://www.w3.org/2000/svg" d="M63.3639107,44.4203644c7.3991051,4.060791,16.8699303,2.9689598,23.1346245-3.3035316  c2.4859772-2.4876633,4.1424866-5.4840279,5.0014648-8.6517944c-2.7815399-1.5288563-5.9742889-2.4018574-9.3726883-2.4001713  C73.1491699,30.0682411,65.6136627,36.1560555,63.3639107,44.4203644z"></path></g><g id="SvgjsG1041" featureKey="Fok8m0-0" transform="matrix(2.4338005941301795,0,0,2.4338005941301795,118.97780487037346,4.760125789195195)" fill="#111111"><path d="M16.98 5.4399999999999995 l-16 0 c-0.37334 0 -0.56 0.18666 -0.56 0.56 s0.18666 0.56 0.56 0.56 l7.44 0 l0 11.44 c0 0.37334 0.18666 0.56 0.56 0.56 s0.56 -0.18666 0.56 -0.56 l0 -11.44 l7.44 0 c0.37334 0 0.56 -0.18666 0.56 -0.56 s-0.18666 -0.56 -0.56 -0.56 z M37.040000000000006 5.66 c-0.37334 0 -0.56 0.18666 -0.56 0.56 l0 5.44 l-14.88 0 l0 -5.44 c0 -0.37334 -0.18666 -0.56 -0.56 -0.56 s-0.56 0.18666 -0.56 0.56 l0 12 c0 0.37334 0.18666 0.56 0.56 0.56 s0.56 -0.18666 0.56 -0.56 l0 -5.44 l14.88 0 l0 5.44 c0 0.37334 0.18666 0.56 0.56 0.56 s0.56 -0.18666 0.56 -0.56 l0 -12 c0 -0.37334 -0.18666 -0.56 -0.56 -0.56 z M57.7 17.54 l-4.48 -2.98 l0.16 0 c1.2667 0 2.3434 -0.44666 3.23 -1.34 s1.33 -1.9667 1.33 -3.22 c0 -1.2667 -0.44334 -2.3434 -1.33 -3.23 s-1.9633 -1.33 -3.23 -1.33 l-12.56 0 l0 12.56 c0 0.37334 0.18666 0.56 0.56 0.56 s0.56 -0.18666 0.56 -0.56 l0 -3.44 l9.28 0 l5.86 3.9 c0.09334 0.06666 0.19334 0.1 0.3 0.1 c0.2 0 0.35334 -0.08666 0.46 -0.26 c0.06666 -0.09334 0.1 -0.19334 0.1 -0.3 c0 -0.2 -0.08 -0.35334 -0.24 -0.46 z M41.94 6.5600000000000005 l11.44 0 c0.94666 0 1.7567 0.33666 2.43 1.01 s1.01 1.4833 1.01 2.43 s-0.33666 1.7567 -1.01 2.43 s-1.4833 1.01 -2.43 1.01 l-11.44 0 l0 -6.88 z M61.52 6.119999999999999 l0 12 c0 0.36 0.18 0.54 0.54 0.54 c0.37334 0 0.56 -0.18 0.56 -0.54 l0 0 l0 -12 c0 -0.37334 -0.18666 -0.56 -0.56 -0.56 c-0.36 0 -0.54 0.18666 -0.54 0.56 z M82.44 5.539999999999999 c-0.21334 0 -0.37334 0.08666 -0.48 0.26 l-7.52 11.3 l-7.54 -11.3 c-0.10666 -0.17334 -0.26666 -0.26 -0.48 -0.26 c-0.37334 0 -0.56 0.19334 -0.56 0.58 c0 0.10666 0.03334 0.20666 0.1 0.3 l8.48 12.7 l8.46 -12.7 c0.06666 -0.09334 0.1 -0.2 0.1 -0.32 c0 -0.37334 -0.18666 -0.56 -0.56 -0.56 z M102.58000000000001 12.559999999999999 c0.37334 0 0.56 -0.18666 0.56 -0.56 s-0.18666 -0.56 -0.56 -0.56 l-15.44 0 l0 -4.88 l15.44 0 c0.37334 0 0.56 -0.18666 0.56 -0.56 s-0.18666 -0.56 -0.56 -0.56 l-16.56 0 l0 13.12 l16.56 0 c0.37334 0 0.56 -0.18666 0.56 -0.56 s-0.18666 -0.56 -0.56 -0.56 l-15.44 0 l0 -4.88 l15.44 0 z"></path></g><g id="SvgjsG1042" featureKey="TflPBd-0" transform="matrix(0.7672933707613645,0,0,0.7672933707613645,154,67.2709866784402)" fill="#111111"><path d="M0 20 l0 -15 l7.36 0 l0 1.88 l-5.68 0 l0 4.62 l5.64 0 l0 1.66 l-5.64 0 l0 4.96 l5.82 0 l0 1.88 l-7.5 0 z M20.2935 20 l-4.64 -10.76 l0 10.76 l-1.76 0 l0 -15 l1.68 0 l4.68 10.34 l0.1 -10.34 l1.74 0 l0 15 l-1.8 0 z M33.287 6.82 l0 13.18 l-1.8 0 l0 -13.18 l-2.94 0 l0 -1.82 l7.68 0 l0 1.82 l-2.94 0 z M42.5205 20 l0 -15 l7.36 0 l0 1.88 l-5.68 0 l0 4.62 l5.64 0 l0 1.66 l-5.64 0 l0 4.96 l5.82 0 l0 1.88 l-7.5 0 z M63.153999999999996 20 l-3 -5.9 l-2.18 0 l0 5.9 l-1.66 0 l0 -15 l3.48 0 c0.78666 0 1.46 0.12334 2.02 0.37 s1.02 0.58 1.38 1 s0.62666 0.9 0.8 1.44 s0.26 1.1033 0.26 1.69 c0 0.46666 -0.05666 0.92 -0.17 1.36 s-0.27668 0.84666 -0.49002 1.22 s-0.46334 0.71 -0.75 1.01 s-0.59666 0.53666 -0.93 0.71 l3.34 6.2 l-2.1 0 z M59.674 6.66 l-1.7 0.000019531 l0 5.7 l1.82 0 c0.54666 0 0.99666 -0.08334 1.35 -0.25 s0.63 -0.38666 0.83 -0.66 s0.34 -0.58668 0.42 -0.94002 s0.12 -0.72334 0.12 -1.11 s-0.06334 -0.74666 -0.19 -1.08 s-0.31 -0.62334 -0.55 -0.87 s-0.53666 -0.44 -0.89 -0.58 s-0.75668 -0.21 -1.21 -0.21 z M74.7675 14.64 l-1.58 0 l0 5.36 l-1.8 0 l0 -15 l3.66 0 c1.32 0 2.35 0.42666 3.09 1.28 s1.11 2.0534 1.11 3.6 c0 0.69334 -0.10666 1.33 -0.32 1.91 s-0.51668 1.08 -0.91002 1.5 s-0.86668 0.75 -1.42 0.99 s-1.1633 0.36 -1.83 0.36 z M74.6875 6.76 l-1.5 0.000058594 l0 6.08 l1.3 0 c0.56 0 1.0267 -0.08 1.4 -0.24 s0.67334 -0.37666 0.9 -0.65 s0.39 -0.59 0.49 -0.95 s0.15 -0.74666 0.15 -1.16 c0 -0.45334 -0.03666 -0.86668 -0.11 -1.24 s-0.21 -0.69668 -0.41 -0.97002 s-0.48 -0.48668 -0.84 -0.64002 s-0.82 -0.23 -1.38 -0.23 z M92.62100000000001 20 l-3 -5.9 l-2.18 0 l0 5.9 l-1.66 0 l0 -15 l3.48 0 c0.78666 0 1.46 0.12334 2.02 0.37 s1.02 0.58 1.38 1 s0.62666 0.9 0.8 1.44 s0.26 1.1033 0.26 1.69 c0 0.46666 -0.05666 0.92 -0.17 1.36 s-0.27668 0.84666 -0.49002 1.22 s-0.46334 0.71 -0.75 1.01 s-0.59666 0.53666 -0.93 0.71 l3.34 6.2 l-2.1 0 z M89.141 6.66 l-1.7 0.000019531 l0 5.7 l1.82 0 c0.54666 0 0.99666 -0.08334 1.35 -0.25 s0.63 -0.38666 0.83 -0.66 s0.34 -0.58668 0.42 -0.94002 s0.12 -0.72334 0.12 -1.11 s-0.06334 -0.74666 -0.19 -1.08 s-0.31 -0.62334 -0.55 -0.87 s-0.53666 -0.44 -0.89 -0.58 s-0.75668 -0.21 -1.21 -0.21 z M100.8545 20 l0 -15 l1.5 0 l0 15 l-1.5 0 z M112.948 20.18 c-0.66666 0 -1.2599 -0.1 -1.7799 -0.3 s-0.95 -0.51334 -1.29 -0.94 s-0.59 -0.98 -0.75 -1.66 s-0.22 -1.4933 -0.18 -2.44 l1.84 0 c0 0.48 0.01334 0.94334 0.04 1.39 s0.10332 0.84 0.22998 1.18 s0.32332 0.61 0.58998 0.81 s0.64666 0.3 1.14 0.3 c0.42666 0 0.78332 -0.06334 1.07 -0.19 s0.51666 -0.29666 0.69 -0.51 s0.29668 -0.46668 0.37002 -0.76002 s0.11 -0.60668 0.11 -0.94002 c-0.01334 -0.72 -0.25 -1.2933 -0.71 -1.72 s-1.05 -0.79332 -1.77 -1.1 c-0.58666 -0.24 -1.11 -0.48334 -1.57 -0.73 s-0.84334 -0.53 -1.15 -0.85 s-0.54 -0.69334 -0.7 -1.12 s-0.24 -0.95332 -0.24 -1.58 c0 -1.3867 0.35334 -2.4266 1.06 -3.12 s1.7067 -1.04 3 -1.04 c1.1333 0 2.03 0.35334 2.69 1.06 s0.99 1.74 0.99 3.1 l0 1.42 l-1.76 0 l0 -1.52 c0 -0.72 -0.15666 -1.3 -0.47 -1.74 s-0.81 -0.66 -1.49 -0.66 c-0.84 0 -1.4333 0.22 -1.78 0.66 s-0.50666 1.06 -0.48 1.86 c0.01334 0.33334 0.07 0.62 0.17 0.86 s0.24334 0.45 0.43 0.63 s0.41332 0.34666 0.67998 0.5 s0.58 0.31 0.94 0.47 c0.44 0.2 0.87666 0.41334 1.31 0.64 s0.83668 0.5 1.21 0.82 c0.38666 0.34666 0.71332 0.76666 0.97998 1.26 s0.4 1.0933 0.4 1.8 c0 1.36 -0.34 2.3934 -1.02 3.1 s-1.6133 1.06 -2.8 1.06 z M123.2015 20 l0 -15 l7.36 0 l0 1.88 l-5.68 0 l0 4.62 l5.64 0 l0 1.66 l-5.64 0 l0 4.96 l5.82 0 l0 1.88 l-7.5 0 z M149.84849999999997 20.18 c-0.66666 0 -1.2599 -0.1 -1.7799 -0.3 s-0.95 -0.51334 -1.29 -0.94 s-0.59 -0.98 -0.75 -1.66 s-0.22 -1.4933 -0.18 -2.44 l1.84 0 c0 0.48 0.01334 0.94334 0.04 1.39 s0.10332 0.84 0.22998 1.18 s0.32332 0.61 0.58998 0.81 s0.64666 0.3 1.14 0.3 c0.42666 0 0.78332 -0.06334 1.07 -0.19 s0.51666 -0.29666 0.69 -0.51 s0.29668 -0.46668 0.37002 -0.76002 s0.11 -0.60668 0.11 -0.94002 c-0.01334 -0.72 -0.25 -1.2933 -0.71 -1.72 s-1.05 -0.79332 -1.77 -1.1 c-0.58666 -0.24 -1.11 -0.48334 -1.57 -0.73 s-0.84334 -0.53 -1.15 -0.85 s-0.54 -0.69334 -0.7 -1.12 s-0.24 -0.95332 -0.24 -1.58 c0 -1.3867 0.35334 -2.4266 1.06 -3.12 s1.7067 -1.04 3 -1.04 c1.1333 0 2.03 0.35334 2.69 1.06 s0.99 1.74 0.99 3.1 l0 1.42 l-1.76 0 l0 -1.52 c0 -0.72 -0.15666 -1.3 -0.47 -1.74 s-0.81 -0.66 -1.49 -0.66 c-0.84 0 -1.4333 0.22 -1.78 0.66 s-0.50666 1.06 -0.48 1.86 c0.01334 0.33334 0.07 0.62 0.17 0.86 s0.24334 0.45 0.43 0.63 s0.41332 0.34666 0.67998 0.5 s0.58 0.31 0.94 0.47 c0.44 0.2 0.87666 0.41334 1.31 0.64 s0.83668 0.5 1.21 0.82 c0.38666 0.34666 0.71332 0.76666 0.97998 1.26 s0.4 1.0933 0.4 1.8 c0 1.36 -0.34 2.3934 -1.02 3.1 s-1.6133 1.06 -2.8 1.06 z M163.88199999999998 20.18 c-1.2533 0 -2.1966 -0.35334 -2.83 -1.06 s-0.95 -1.74 -0.95 -3.1 l0 -7 c0 -1.3733 0.32 -2.41 0.96 -3.11 s1.66 -1.05 3.06 -1.05 c1.28 0 2.2334 0.35334 2.86 1.06 s0.94 1.7267 0.94 3.06 l0 7.04 c0 1.3733 -0.30666 2.41 -0.92 3.11 s-1.6533 1.05 -3.12 1.05 z M166.20199999999997 8.96 c0 -0.29334 -0.03664 -0.58334 -0.10998 -0.87 s-0.19 -0.54332 -0.35 -0.76998 s-0.37334 -0.41 -0.64 -0.55 s-0.6 -0.21 -1 -0.21 c-0.45334 0 -0.82668 0.06 -1.12 0.18 s-0.52668 0.29666 -0.70002 0.53 s-0.29334 0.51 -0.36 0.83 s-0.1 0.68 -0.1 1.08 l0 6.74 c0 0.30666 0.03334 0.61 0.1 0.91 s0.17666 0.57 0.33 0.81 s0.36334 0.43334 0.63 0.58 s0.6 0.22 1 0.22 c0.45334 0 0.83 -0.05666 1.13 -0.17 s0.53666 -0.27668 0.71 -0.49002 s0.29668 -0.47334 0.37002 -0.78 s0.11 -0.64666 0.11 -1.02 l0 -7.02 z M174.6755 20 l0 -15 l1.7 0 l0 13.2 l4.48 0 l0 1.8 l-6.18 0 z M190.40900000000002 20.18 c-1.2133 0 -2.16 -0.35664 -2.84 -1.07 s-1.02 -1.7433 -1.02 -3.09 l0 -11.02 l1.74 0 l0 10.98 c0 0.28 0.03666 0.56666 0.11 0.86 s0.19 0.55334 0.35 0.78 s0.37334 0.41332 0.64 0.55998 s0.59332 0.22 0.97998 0.22 c0.44 0 0.80666 -0.06334 1.1 -0.19 s0.52668 -0.31 0.70002 -0.55 s0.29668 -0.52666 0.37002 -0.86 s0.11 -0.7 0.11 -1.1 l0 -10.7 l1.72 0 l0 11.02 c0 1.3733 -0.32666 2.41 -0.98 3.11 s-1.6467 1.05 -2.98 1.05 z M205.3625 6.82 l0 13.18 l-1.8 0 l0 -13.18 l-2.94 0 l0 -1.82 l7.68 0 l0 1.82 l-2.94 0 z M214.796 20 l0 -15 l1.5 0 l0 15 l-1.5 0 z M226.9895 20.18 c-1.2533 0 -2.1966 -0.35334 -2.83 -1.06 s-0.95 -1.74 -0.95 -3.1 l0 -7 c0 -1.3733 0.32 -2.41 0.96 -3.11 s1.66 -1.05 3.06 -1.05 c1.28 0 2.2334 0.35334 2.86 1.06 s0.94 1.7267 0.94 3.06 l0 7.04 c0 1.3733 -0.30666 2.41 -0.92 3.11 s-1.6533 1.05 -3.12 1.05 z M229.30949999999999 8.96 c0 -0.29334 -0.03664 -0.58334 -0.10998 -0.87 s-0.19 -0.54332 -0.35 -0.76998 s-0.37334 -0.41 -0.64 -0.55 s-0.6 -0.21 -1 -0.21 c-0.45334 0 -0.82668 0.06 -1.12 0.18 s-0.52668 0.29666 -0.70002 0.53 s-0.29334 0.51 -0.36 0.83 s-0.1 0.68 -0.1 1.08 l0 6.74 c0 0.30666 0.03334 0.61 0.1 0.91 s0.17666 0.57 0.33 0.81 s0.36334 0.43334 0.63 0.58 s0.6 0.22 1 0.22 c0.45334 0 0.83 -0.05666 1.13 -0.17 s0.53666 -0.27668 0.71 -0.49002 s0.29668 -0.47334 0.37002 -0.78 s0.11 -0.64666 0.11 -1.02 l0 -7.02 z M244.18300000000002 20 l-4.64 -10.76 l0 10.76 l-1.76 0 l0 -15 l1.68 0 l4.68 10.34 l0.1 -10.34 l1.74 0 l0 15 l-1.8 0 z M256.8365 20.18 c-0.66666 0 -1.2599 -0.1 -1.7799 -0.3 s-0.95 -0.51334 -1.29 -0.94 s-0.59 -0.98 -0.75 -1.66 s-0.22 -1.4933 -0.18 -2.44 l1.84 0 c0 0.48 0.01334 0.94334 0.04 1.39 s0.10332 0.84 0.22998 1.18 s0.32332 0.61 0.58998 0.81 s0.64666 0.3 1.14 0.3 c0.42666 0 0.78332 -0.06334 1.07 -0.19 s0.51666 -0.29666 0.69 -0.51 s0.29668 -0.46668 0.37002 -0.76002 s0.11 -0.60668 0.11 -0.94002 c-0.01334 -0.72 -0.25 -1.2933 -0.71 -1.72 s-1.05 -0.79332 -1.77 -1.1 c-0.58666 -0.24 -1.11 -0.48334 -1.57 -0.73 s-0.84334 -0.53 -1.15 -0.85 s-0.54 -0.69334 -0.7 -1.12 s-0.24 -0.95332 -0.24 -1.58 c0 -1.3867 0.35334 -2.4266 1.06 -3.12 s1.7067 -1.04 3 -1.04 c1.1333 0 2.03 0.35334 2.69 1.06 s0.99 1.74 0.99 3.1 l0 1.42 l-1.76 0 l0 -1.52 c0 -0.72 -0.15666 -1.3 -0.47 -1.74 s-0.81 -0.66 -1.49 -0.66 c-0.84 0 -1.4333 0.22 -1.78 0.66 s-0.50666 1.06 -0.48 1.86 c0.01334 0.33334 0.07 0.62 0.17 0.86 s0.24334 0.45 0.43 0.63 s0.41332 0.34666 0.67998 0.5 s0.58 0.31 0.94 0.47 c0.44 0.2 0.87666 0.41334 1.31 0.64 s0.83668 0.5 1.21 0.82 c0.38666 0.34666 0.71332 0.76666 0.97998 1.26 s0.4 1.0933 0.4 1.8 c0 1.36 -0.34 2.3934 -1.02 3.1 s-1.6133 1.06 -2.8 1.06 z"></path></g>
			</g>
		</svg>
	